<svg xmlns="http://www.w3.org/2000/svg" width="48" height="48" viewBox="0 0 48 48" fill="none">
  <path d="m24 3 5 2 6 1 3 5 4 5-1 6 1 6-4 5-3 5-6 1-5 3-5-3-6-1-3-5-4-5 1-6-1-6 4-5 3-5 6-1Z" fill="#67413a" fill-opacity=".7" stroke="#ad7961" stroke-opacity=".55"/>
  <circle cx="24" cy="23" r="13" stroke="#d5b17a" stroke-opacity=".45"/>
  <path d="m24 11 4 9 9 3-9 3-4 9-4-9-9-3 9-3Z" stroke="#d5b17a" stroke-width="1.1"/>
  <path d="m24 17 2 4 4 2-4 2-2 4-2-4-4-2 4-2Z" fill="#d5b17a" fill-opacity=".65"/>
</svg>
